Made from the master copy uploaded previously. Start and end credits were removed.

General
Complete name                            : Trigg Da Kidd_I'm The Man.vob
Format                                   : MPEG-PS
File size                                : 180 MiB
Duration                                 : 4mn 51s
Overall bit rate mode                    : Variable
Overall bit rate                         : 5 198 Kbps

Video
ID                                       : 224 (0xE0)
Format                                   : MPEG Video
Format version                           : Version 2
Format profile                           : Main@Main
Format settings, BVOP                    : No
Format settings, Matrix                  : Default
Format settings, GOP                     : N=18
Duration                                 : 4mn 50s
Bit rate mode                            : Variable
Bit rate                                 : 4 774 Kbps
Maximum bit rate                         : 9 000 Kbps
Width                                    : 720 pixels
Height                                   : 480 pixels
Display aspect ratio                     : 4:3
Frame rate                               : 29.970 fps
Standard                                 : NTSC
Color space                              : YUV
Chroma subsampling                       : 4:2:0
Bit depth                                : 8 bits
Scan type                                : Progressive
Compression mode                         : Lossy
Bits/(Pixel*Frame)                       : 0.461
Time code of first frame                 : 00:00:00:00
Time code source                         : Group of pictures header
Stream size                              : 165 MiB (92%)

Audio
ID                                       : 189 (0xBD)-128 (0x80)
Format                                   : AC-3
Format/Info                              : Audio Coding 3
Mode extension                           : CM (complete main)
Format settings, Endianness              : Big
Muxing mode                              : DVD-Video
Duration                                 : 4mn 51s
Bit rate mode                            : Constant
Bit rate                                 : 320 Kbps
Channel(s)                               : 2 channels
Channel positions                        : Front: L R
Sampling rate                            : 48.0 KHz
Bit depth                                : 16 bits
Compression mode                         : Lossy
Stream size                              : 11.1 MiB (6%)